<svg width="113" height="48" viewBox="0 0 113 48" fill="none" xmlns="http://www.w3.org/2000/svg">
<path fill-rule="evenodd" clip-rule="evenodd" d="M28.9477 7.3543C29.1268 5.85449 28.9045 3.6645 30.0891 2.63587C30.4342 1.03652 32.9494 1.40815 32.5611 0.392792C32.3189 -0.244296 31.1343 0.0576586 30.6565 0.173794C30.2948 0.260067 26.8439 1.35174 25.5167 1.50106C24.9559 1.34511 24.3951 1.18583 23.831 1.02988C21.6676 1.32188 20.4167 3.04401 19.2122 4.41441C18.2001 5.56249 16.8364 8.37298 17.9214 10.0553C17.8617 10.4236 17.7986 10.7886 17.7389 11.1569L20.201 14.7538C21.0504 15.361 21.1632 15.8156 22.0757 16.4129C22.2649 16.6982 22.4507 16.977 22.6398 17.2623C23.3864 17.7534 25.5897 17.7601 25.9646 17.4415C29.5117 17.7733 29.1268 10.5895 30.2517 9.08306C30.109 8.40284 29.5117 7.70271 28.951 7.3543H28.9477ZM13.6576 28.919C14.4108 28.7233 15.6949 28.6237 16.3652 28.2886C17.4369 27.751 21.1168 25.1762 19.9455 23.0824C19.5838 18.6692 14.2548 22.3989 11.9885 20.8493C9.69235 20.554 7.11082 16.2105 6.42065 14.3523C6.15187 13.6157 6.26137 13.8679 5.89306 13.2872C5.89638 13.2275 5.65747 13.4896 5.66079 13.4299C4.9872 14.2129 5.10665 14.8932 5.00047 16.8011C4.69852 16.7845 4.39988 16.7646 4.09793 16.7447C4.0382 17.4349 3.97184 17.8132 3.64666 18.1682C3.5803 18.2876 3.51061 18.4005 3.44757 18.5166C2.87684 18.3241 3.16221 18.5962 2.92994 18.1184C0.816266 18.2246 0.972222 20.3482 0 21.556C0.0431361 25.5212 7.89391 30.4122 13.6542 28.9224L13.6576 28.919ZM39.7317 16.8774C36.3073 17.3951 34.2103 18.4867 32.9162 19.3826C32.0136 20.0131 31.7482 20.4378 31.5557 20.7C31.36 20.9654 31.2272 21.5527 31.3235 22.1699C31.423 22.7838 31.6719 23.4374 32.2061 23.7991C36.4135 23.4872 43.7135 23.2218 45.1337 26.7556C45.21 27.2467 45.3195 27.542 45.3294 27.6615C46.7231 27.3164 45.7044 27.4391 47.755 27.761C48.2262 27.834 49.3842 27.5719 50.1507 27.3861C50.4991 27.3031 50.6949 26.9879 50.6949 26.9879C50.6949 26.9879 50.6285 26.6527 50.6484 26.4702C50.6484 26.4702 51.3685 26.5233 51.6638 26.2977C53.6082 25.9825 52.5863 25.0667 53.5054 24.038C52.9512 17.4316 46.1756 15.8986 39.725 16.8774H39.7317ZM32.226 31.2418C31.2505 31.9883 30.839 31.8025 30.2683 32.9572C30.2086 32.9572 30.3579 33.1331 30.2948 33.1331C30.8788 34.2945 32.2094 34.7623 33.1916 35.5786C33.4969 35.8374 34.3231 37.2709 34.7179 37.3737C35.1593 37.9013 35.4479 39.358 35.7333 39.358C36.0353 39.7661 35.7101 40.7317 36.0021 41.1067C36.0253 42.8321 35.7831 42.9549 35.4811 43.2867C35.4811 43.4061 35.647 43.7214 35.647 43.8375C35.73 43.9205 36.4202 44.4182 36.7221 44.3551C37.6612 44.385 41.5135 47.3913 41.8188 47.9686C44.5828 48.1744 44.3838 47.3315 46.2884 46.5219C46.8027 46.2996 47.2141 46.5086 47.5526 46.1569C47.9076 45.7952 47.9375 45.0818 48.276 44.7102C48.3224 37.9146 39.0714 31.474 32.2227 31.2384L32.226 31.2418ZM21.3358 32.7947C20.9509 33.2028 19.8957 33.3554 19.6004 33.8233C19.1458 34.5334 18.1105 36.146 17.2943 36.9158C14.6762 39.4011 9.07518 40.6488 6.30783 38.2729C6.12865 38.2862 6.23483 38.3891 6.44719 39.0693C6.6496 40.3568 7.68487 43.373 7.30328 44.1461C7.54882 45.0022 7.81096 44.6903 8.27882 45.1648C8.60068 45.4866 8.73341 46.3261 9.10172 46.5518C9.52313 46.5252 9.94453 46.4954 10.3659 46.4622C10.4423 46.6978 10.5186 46.93 10.5982 47.1723C11.1358 47.1324 11.6799 47.0926 12.2208 47.0528C12.5261 47.1225 13.4452 47.597 13.714 47.67C14.3146 47.6268 14.9151 47.587 15.5157 47.5439C16.8895 47.9089 18.0906 47.3349 19.2487 46.5518C19.8957 46.1171 20.6058 46.1868 21.1798 45.6957C22.0127 44.9823 23.1475 43.5853 23.6751 42.6197C24.9791 40.2539 24.5378 34.5898 23.3565 33.1862C22.8953 32.6818 22.3478 32.6719 21.3358 32.788V32.7947Z" fill="#FF5701"/>
<path d="M87.6857 17.3453C93.3764 17.3453 97.2254 20.9421 97.2254 27.3761C97.2254 35.4657 91.9396 37.8581 86.3983 37.8581H78.9822C79.0087 37.4102 78.9822 36.2123 78.9822 34.7125V20.4876C78.9822 18.9877 79.0087 18.0321 78.9822 17.3453H87.6857ZM86.0233 33.9659C89.1656 33.9659 91.7206 32.9273 91.7206 27.3761C91.7206 22.6576 89.1656 21.0848 86.0233 21.0848H84.3742V33.9626H86.0233V33.9659Z" fill="#00327D"/>
<path d="M105.292 34.7125C105.292 36.2123 105.365 37.8581 105.365 37.8581H99.8634C99.8634 37.8581 99.8999 36.2123 99.8999 34.7125V20.4876C99.8999 18.9877 99.8634 17.3453 99.8634 17.3453H112.871V21.3138C112.871 21.3138 109.964 21.2408 108.975 21.2408H105.292V25.3719L108.975 25.4117C109.665 25.4117 112.038 25.3719 112.038 25.3719V29.1513C112.038 29.1513 109.931 29.0949 108.975 29.0949L105.292 29.1181V34.7158V34.7125Z" fill="#00327D"/>
<path d="M68.0057 33.7104C65.4176 33.7104 63.4266 31.9717 63.4266 29.2475V29.0152C63.4266 29.0152 68.2347 28.8958 69.8606 28.8958C72.6346 28.8958 73.776 28.8692 75.9627 28.8394V27.2931C75.9627 20.3017 72.9962 16.9006 66.8908 16.9006C64.077 16.9006 57.5303 17.9591 57.5303 27.7477C57.5303 34.2778 60.8285 38.18 66.5922 38.18C71.1182 38.18 73.8955 37.0253 75.9096 35.5553C75.684 35.2169 73.995 32.1874 73.776 31.8556C72.5682 32.778 70.574 33.7038 68.0057 33.7038V33.7104ZM63.4266 25.0965C63.5063 23.9086 63.931 21.1512 66.9273 21.1512C69.9236 21.1512 70.1692 23.7427 70.1692 25.1098V25.3852C70.1692 25.3852 68.1185 25.4416 66.8941 25.4416C65.6697 25.4416 63.4101 25.3852 63.4101 25.3852L63.4266 25.0932V25.0965Z" fill="#00327D"/>
</svg>
